# xmcd CD database file
#
# Track frame offsets:
#	150
#	24602
#	57025
#
# Disc length: 1211 seconds
#
# Revision: 0
# Processed by: cddbd v1.5PL3 Copyright (c) Steve Scherf et al.
# Submitted via: CDex 1.51
#
DISCID=1c04b903
DTITLE=CHAGE and ASKA - パラシュートの部屋で
DYEAR=2001
DGENRE=JPop
TTITLE0=パラシュートの部屋で
TTITLE1=アジアンレストランにて
TTITLE2=CD EXTRA
EXTD=YEAR: 2001
EXTT0=
EXTT1=
EXTT2=
PLAYORDER=
